<svg width="15" height="15" viewBox="0 0 15 15" fill="none" xmlns="http://www.w3.org/2000/svg">
<path d="M13.9056 2.17589C13.1658 1.33641 12.1394 0.874115 11.0156 0.874115C9.43512 0.874115 8.43448 1.81807 7.87339 2.60996C7.72781 2.81545 7.60397 3.02148 7.5 3.21537C7.39603 3.02148 7.27222 2.81545 7.12661 2.60996C6.56552 1.81807 5.56488 0.874115 3.98438 0.874115C2.86061 0.874115 1.83425 1.33645 1.09438 2.17593C0.388682 2.97673 0 4.04922 0 5.19584C0 6.44397 0.487295 7.60486 1.53354 8.84916C2.46861 9.96127 3.81384 11.1076 5.37158 12.435C5.95204 12.9296 6.5523 13.4412 7.19136 14.0003L7.21055 14.0171C7.2934 14.0897 7.3967 14.1259 7.5 14.1259C7.6033 14.1259 7.7066 14.0896 7.78945 14.0171L7.80864 14.0003C8.4477 13.4412 9.04796 12.9297 9.62851 12.4349C11.1862 11.1076 12.5314 9.9613 13.4665 8.84916C14.5127 7.60483 15 6.44397 15 5.19584C15 4.04922 14.6113 2.97672 13.9056 2.17589ZM9.05839 11.766C8.558 12.1924 8.04302 12.6313 7.5 13.1033C6.95701 12.6313 6.442 12.1925 5.94152 11.766C2.89292 9.16814 0.878906 7.4519 0.878906 5.19584C0.878906 4.26332 1.1896 3.39719 1.75377 2.75703C2.32441 2.1096 3.11657 1.75302 3.98438 1.75302C5.18933 1.75302 5.96824 2.49535 6.40945 3.11808C6.80522 3.6766 7.01174 4.23962 7.08217 4.45574C7.14108 4.63665 7.30975 4.75908 7.5 4.75908C7.69025 4.75908 7.85892 4.63665 7.91783 4.45574C7.98826 4.23962 8.19478 3.6766 8.59055 3.11806C9.03176 2.49535 9.81067 1.75302 11.0156 1.75302C11.8834 1.75302 12.6756 2.1096 13.2462 2.75703C13.8104 3.39719 14.1211 4.26332 14.1211 5.19584C14.1211 7.4519 12.1071 9.16814 9.05839 11.766Z" fill="#BDBEC2"/>
</svg>
