<svg width="32" height="32" viewBox="0 0 32 32" fill="none" xmlns="http://www.w3.org/2000/svg">
<path d="M31.0389 3.02701H0.96096C0.432434 3.02701 0 3.45946 0 3.98799C0 4.51652 0.432434 4.94894 0.96096 4.94894H31.0389C31.5676 4.94894 32 4.51652 32 3.98799C32 3.45946 31.5676 3.02701 31.0389 3.02701Z" fill="#BDBEC2"/>
<path d="M22.1021 11.003H0.96096C0.432434 11.003 0 11.4354 0 11.9639C0 12.4925 0.432434 12.9249 0.96096 12.9249H22.1021C22.6306 12.9249 23.0631 12.4925 23.0631 11.9639C23.0631 11.4354 22.6306 11.003 22.1021 11.003Z" fill="#BDBEC2"/>
<path d="M31.0389 19.0751H0.96096C0.432434 19.0751 0 19.5075 0 20.0361C0 20.5646 0.432434 20.997 0.96096 20.997H31.0389C31.5676 20.997 32 20.5646 32 20.0361C32 19.5075 31.5676 19.0751 31.0389 19.0751Z" fill="#BDBEC2"/>
<path d="M14.5105 27.0511H0.96096C0.432434 27.0511 0 27.4835 0 28.0119C0 28.5406 0.432434 28.973 0.96096 28.973H14.5105C15.039 28.973 15.4715 28.5406 15.4715 28.0119C15.4715 27.4835 15.039 27.0511 14.5105 27.0511Z" fill="#BDBEC2"/>
</svg>
