<svg width="21" height="21" viewBox="0 0 21 21" fill="none" xmlns="http://www.w3.org/2000/svg">
<g clip-path="url(#clip0)">
<path d="M6.78352 11.1459L19.7064 20.8381C19.9487 21.0222 20.2783 21.0513 20.5513 20.914C20.8259 20.7767 20.9987 20.4972 20.9987 20.1919V0.807501C20.9987 0.502198 20.8259 0.222739 20.5529 0.0854302C20.4382 0.0288925 20.3138 -0.000183116 20.191 -0.000183105C20.0198 -0.00018309 19.8486 0.054741 19.7064 0.161355L6.78352 9.85357C6.57999 10.0054 6.46045 10.2461 6.46045 10.4997C6.46045 10.7533 6.57999 10.994 6.78352 11.1459Z" fill="#BDBEC2"/>
<path d="M0.807686 20.9998H2.42306C2.8689 20.9998 3.23074 20.6379 3.23074 20.1921V0.807686C3.23074 0.361843 2.8689 -3.9e-08 2.42306 0L0.807684 1.41201e-07C0.361842 1.80201e-07 -3.9e-08 0.361843 0 0.807686L1.6946e-06 20.1921C1.7336e-06 20.6379 0.361844 20.9998 0.807686 20.9998Z" fill="#BDBEC2"/>
</g>
<defs>
<clipPath id="clip0">
<rect width="21" height="21" fill="white"/>
</clipPath>
</defs>
</svg>
