<svg width="17" height="11" viewBox="0 0 17 11" fill="none" xmlns="http://www.w3.org/2000/svg">
<path d="M16.8236 0.981101C16.7141 0.9145 16.5788 0.911899 16.4671 0.974455L12.5665 3.16145V1.84923C12.5654 0.828395 11.7598 0.00115577 10.7657 0H1.80085C0.806723 0.00115577 0.00112553 0.828395 0 1.84923V9.15078C0.00112553 10.1716 0.806723 10.9988 1.80085 11H10.7657C11.7598 10.9988 12.5654 10.1716 12.5665 9.15078V7.86239L16.4672 10.0494C16.5788 10.1119 16.7143 10.1095 16.8236 10.0429C16.933 9.97614 17 9.85521 17 9.72476V1.29908C17 1.16848 16.9329 1.0477 16.8236 0.981101ZM11.8459 9.15092C11.8454 9.76348 11.3619 10.2597 10.7654 10.2605H1.80085C1.20432 10.2597 0.721042 9.76348 0.720339 9.15092V1.84923C0.721042 1.23681 1.20432 0.740412 1.80085 0.73969H10.7657C11.3621 0.740412 11.8455 1.23681 11.8462 1.84923L11.8459 9.15092ZM16.2797 9.10151L12.5665 7.01969V4.00415L16.2797 1.92247V9.10151Z" fill="#BDBEC2"/>
</svg>
