<svg width="23" height="23" viewBox="0 0 23 23" fill="none" xmlns="http://www.w3.org/2000/svg">
<path d="M0.323703 1.90899C-0.105297 1.47999 -0.105297 0.765994 0.323703 0.321994C0.767703 -0.107006 1.46671 -0.107006 1.91071 0.321994L11.4337 9.86099L20.9727 0.321994C21.4017 -0.107006 22.1157 -0.107006 22.5437 0.321994C22.9877 0.765994 22.9877 1.48099 22.5437 1.90899L13.0207 11.433L22.5437 20.972C22.9877 21.401 22.9877 22.115 22.5437 22.559C22.1147 22.988 21.4007 22.988 20.9727 22.559L11.4337 13.02L1.91071 22.559C1.46671 22.988 0.767703 22.988 0.323703 22.559C-0.105297 22.115 -0.105297 21.4 0.323703 20.972L9.84671 11.433L0.323703 1.90899Z" fill="#666666"/>
</svg>
