<svg width="21" height="21" viewBox="0 0 21 21" fill="none" xmlns="http://www.w3.org/2000/svg">
<g clip-path="url(#clip0)">
<path d="M14.2162 9.85411L1.29328 0.1619C1.05097 -0.0222517 0.721431 -0.0513284 0.448433 0.085978C0.173821 0.223284 0.000976562 0.502743 0.000976562 0.808047V20.1925C0.000976562 20.4978 0.173821 20.7773 0.446818 20.9146C0.561509 20.9711 0.685893 21.0002 0.80866 21.0002C0.97989 21.0002 1.15112 20.9453 1.29328 20.8387L14.2162 11.1464C14.4197 10.9946 14.5393 10.7539 14.5393 10.5003C14.5393 10.2467 14.4197 10.006 14.2162 9.85411Z" fill="#666666"/>
<path d="M20.192 0.000183105H18.5766C18.1308 0.000183105 17.769 0.362025 17.769 0.807867V20.1923C17.769 20.6382 18.1308 21 18.5766 21H20.192C20.6379 21 20.9997 20.6382 20.9997 20.1923V0.807867C20.9997 0.362025 20.6379 0.000183105 20.192 0.000183105Z" fill="#666666"/>
</g>
<defs>
<clipPath id="clip0">
<rect width="21" height="21" fill="white"/>
</clipPath>
</defs>
</svg>
