<svg width="23" height="23" viewBox="0 0 23 23" fill="none" xmlns="http://www.w3.org/2000/svg">
<g clip-path="url(#clip0)">
<path d="M22.7189 21.3642L16.1783 14.8235C17.4454 13.2586 18.2081 11.27 18.2081 9.10418C18.2081 4.08443 14.1238 0 9.10404 0C4.08434 0 0 4.08439 0 9.10414C0 14.1239 4.08439 18.2083 9.10408 18.2083C11.2699 18.2083 13.2583 17.4455 14.8234 16.1786L21.3639 22.7191C21.5507 22.9061 21.7961 23 22.0414 23C22.2867 23 22.5321 22.9061 22.719 22.7191C23.0937 22.3445 23.0937 21.7388 22.7189 21.3642ZM9.10408 16.2917C5.14045 16.2917 1.91667 13.0678 1.91667 9.10414C1.91667 5.14045 5.14045 1.91664 9.10408 1.91664C13.0677 1.91664 16.2915 5.14045 16.2915 9.10414C16.2915 13.0678 13.0677 16.2917 9.10408 16.2917Z" fill="#666666"/>
</g>
<defs>
<clipPath id="clip0">
<rect width="23" height="23" fill="white"/>
</clipPath>
</defs>
</svg>
