<svg width="12" height="12" viewBox="0 0 12 12" fill="none" xmlns="http://www.w3.org/2000/svg">
<path d="M11.9799 8.31608C11.5547 9.29108 10.871 10.1407 9.99767 10.7793C9.1243 11.4179 8.0921 11.823 7.00502 11.9538C5.91795 12.0846 4.81438 11.9364 3.80546 11.5243C2.79654 11.1121 1.91789 10.4505 1.258 9.60602C0.598114 8.76156 0.180287 7.76409 0.0465993 6.71406C-0.087088 5.66403 0.0680851 4.59852 0.496491 3.62483C0.924897 2.65115 1.61141 1.80367 2.48689 1.16774C3.36237 0.531821 4.39591 0.129908 5.48341 0.00248158C5.55886 -0.00621992 5.63523 0.00808921 5.70184 0.0434045C5.76845 0.0787199 5.82195 0.133272 5.85485 0.199419C5.88925 0.264346 5.90144 0.338139 5.88966 0.410181C5.87788 0.482223 5.84274 0.548799 5.7893 0.600329C5.34287 1.02804 4.98976 1.53783 4.75083 2.09958C4.5119 2.66133 4.39201 3.26364 4.39823 3.87091C4.40464 4.6691 4.62504 5.45209 5.03796 6.14357C5.45087 6.83504 6.04222 7.41144 6.75439 7.81659C7.46655 8.22173 8.27525 8.44182 9.10167 8.4554C9.9281 8.46898 10.7441 8.27558 11.4701 7.89407C11.5375 7.86047 11.6138 7.8472 11.6891 7.85598C11.7645 7.86476 11.8353 7.89518 11.8925 7.9433C11.9413 7.99161 11.9752 8.052 11.9907 8.11779C12.0061 8.18357 12.0024 8.2522 11.9799 8.31608Z" fill="#262626"/>
</svg>
