<svg width="12" height="12" viewBox="0 0 12 12" fill="none" xmlns="http://www.w3.org/2000/svg">
<path d="M6 9C7.65685 9 9 7.65685 9 6C9 4.34315 7.65685 3 6 3C4.34315 3 3 4.34315 3 6C3 7.65685 4.34315 9 6 9Z" fill="#FAFAFA"/>
<path d="M11.4002 6.5999H10.8002C10.6411 6.5999 10.4885 6.53669 10.3759 6.42417C10.2634 6.31164 10.2002 6.15903 10.2002 5.9999C10.2002 5.84077 10.2634 5.68816 10.3759 5.57564C10.4885 5.46312 10.6411 5.3999 10.8002 5.3999H11.4002C11.5593 5.3999 11.7119 5.46312 11.8245 5.57564C11.937 5.68816 12.0002 5.84077 12.0002 5.9999C12.0002 6.15903 11.937 6.31164 11.8245 6.42417C11.7119 6.53669 11.5593 6.5999 11.4002 6.5999Z" fill="#FAFAFA"/>
<path d="M1.2 6.5999H0.6C0.44087 6.5999 0.288258 6.53669 0.175736 6.42417C0.0632141 6.31164 0 6.15903 0 5.9999C0 5.84077 0.0632141 5.68816 0.175736 5.57564C0.288258 5.46312 0.44087 5.3999 0.6 5.3999H1.2C1.35913 5.3999 1.51174 5.46312 1.62426 5.57564C1.73679 5.68816 1.8 5.84077 1.8 5.9999C1.8 6.15903 1.73679 6.31164 1.62426 6.42417C1.51174 6.53669 1.35913 6.5999 1.2 6.5999Z" fill="#FAFAFA"/>
<path d="M9.39591 3.20394C9.24687 3.1972 9.10569 3.13516 8.99991 3.02994C8.88816 2.91753 8.82544 2.76546 8.82544 2.60694C8.82544 2.44843 8.88816 2.29636 8.99991 2.18394L9.42591 1.75794C9.4797 1.69513 9.54589 1.64412 9.62033 1.60811C9.69477 1.57209 9.77585 1.55186 9.85848 1.54866C9.94111 1.54547 10.0235 1.5594 10.1005 1.58956C10.1775 1.61973 10.2474 1.66548 10.3059 1.72395C10.3644 1.78243 10.4101 1.85236 10.4403 1.92935C10.4705 2.00635 10.4844 2.08874 10.4812 2.17138C10.478 2.25401 10.4578 2.33509 10.4218 2.40953C10.3857 2.48396 10.3347 2.55016 10.2719 2.60394L9.84591 3.02994C9.78703 3.08851 9.71664 3.13422 9.63918 3.16417C9.56172 3.19412 9.47888 3.20766 9.39591 3.20394Z" fill="#FAFAFA"/>
<path d="M2.18397 10.416C2.10501 10.4164 2.02673 10.4013 1.95363 10.3714C1.88053 10.3416 1.81404 10.2976 1.75797 10.242C1.64622 10.1296 1.5835 9.9775 1.5835 9.81899C1.5835 9.66048 1.64622 9.5084 1.75797 9.39599L2.18397 8.99999C2.29875 8.90169 2.4464 8.85033 2.5974 8.85616C2.74841 8.86199 2.89165 8.92459 2.99851 9.03145C3.10537 9.13831 3.16797 9.28155 3.1738 9.43256C3.17963 9.58356 3.12827 9.73121 3.02997 9.84599L2.60397 10.272C2.48754 10.3719 2.33723 10.4235 2.18397 10.416Z" fill="#FAFAFA"/>
<path d="M6.00015 1.8C5.84102 1.8 5.6884 1.73679 5.57588 1.62426C5.46336 1.51174 5.40015 1.35913 5.40015 1.2V0.6C5.40015 0.44087 5.46336 0.288258 5.57588 0.175736C5.6884 0.0632141 5.84102 0 6.00015 0C6.15928 0 6.31189 0.0632141 6.42441 0.175736C6.53693 0.288258 6.60015 0.44087 6.60015 0.6V1.2C6.60015 1.35913 6.53693 1.51174 6.42441 1.62426C6.31189 1.73679 6.15928 1.8 6.00015 1.8Z" fill="#FAFAFA"/>
<path d="M6.00015 12.0001C5.84102 12.0001 5.6884 11.9369 5.57588 11.8243C5.46336 11.7118 5.40015 11.5592 5.40015 11.4001V10.8001C5.40015 10.6409 5.46336 10.4883 5.57588 10.3758C5.6884 10.2633 5.84102 10.2001 6.00015 10.2001C6.15928 10.2001 6.31189 10.2633 6.42441 10.3758C6.53693 10.4883 6.60015 10.6409 6.60015 10.8001V11.4001C6.60015 11.5592 6.53693 11.7118 6.42441 11.8243C6.31189 11.9369 6.15928 12.0001 6.00015 12.0001Z" fill="#FAFAFA"/>
<path d="M2.6038 3.20398C2.4464 3.20332 2.29556 3.14083 2.1838 3.02998L1.7578 2.60398C1.6595 2.4892 1.60814 2.34156 1.61397 2.19055C1.61981 2.03955 1.6824 1.8963 1.78926 1.78944C1.89612 1.68259 2.03936 1.61999 2.19037 1.61416C2.34137 1.60832 2.48902 1.65969 2.6038 1.75798L3.0298 2.18398C3.14155 2.2964 3.20428 2.44847 3.20428 2.60698C3.20428 2.76549 3.14155 2.91757 3.0298 3.02998C2.97374 3.08559 2.90725 3.12959 2.83414 3.15945C2.76104 3.1893 2.68276 3.20444 2.6038 3.20398Z" fill="#FAFAFA"/>
<path d="M9.81622 10.416C9.65881 10.4153 9.50797 10.3528 9.39622 10.242L9.00022 9.81597C8.93681 9.70198 8.91228 9.57043 8.93034 9.44125C8.9484 9.31207 9.00806 9.19229 9.1003 9.10005C9.19253 9.00782 9.31231 8.94815 9.44149 8.9301C9.57068 8.91204 9.70223 8.93657 9.81622 8.99997L10.2422 9.42597C10.354 9.53839 10.4167 9.69046 10.4167 9.84897C10.4167 10.0075 10.354 10.1596 10.2422 10.272C10.1243 10.3734 9.97152 10.425 9.81622 10.416Z" fill="#FAFAFA"/>
</svg>
